<?xml version="1.0" encoding="UTF-8" standalone="no"?>
<!-- Generator: Adobe Illustrator 19.0.0, SVG Export Plug-In . SVG Version: 6.00 Build 0)  -->

<svg
   xmlns:dc="http://purl.org/dc/elements/1.1/"
   xmlns:cc="http://creativecommons.org/ns#"
   xmlns:rdf="http://www.w3.org/1999/02/22-rdf-syntax-ns#"
   xmlns:svg="http://www.w3.org/2000/svg"
   xmlns="http://www.w3.org/2000/svg"
   xmlns:sodipodi="http://sodipodi.sourceforge.net/DTD/sodipodi-0.dtd"
   xmlns:inkscape="http://www.inkscape.org/namespaces/inkscape"
   version="1.1"
   id="Capa_1"
   x="0px"
   y="0px"
   viewBox="0 0 512 512"
   style="enable-background:new 0 0 512 512;"
   xml:space="preserve"
   sodipodi:docname="tumbleweed-2.svg"
   inkscape:version="0.92.2 5c3e80d, 2017-08-06"><metadata
     id="metadata63"><rdf:RDF><cc:Work
         rdf:about=""><dc:format>image/svg+xml</dc:format><dc:type
           rdf:resource="http://purl.org/dc/dcmitype/StillImage" /></cc:Work></rdf:RDF></metadata><defs
     id="defs61" /><sodipodi:namedview
     pagecolor="#ffffff"
     bordercolor="#666666"
     borderopacity="1"
     objecttolerance="10"
     gridtolerance="10"
     guidetolerance="10"
     inkscape:pageopacity="0"
     inkscape:pageshadow="2"
     inkscape:window-width="1680"
     inkscape:window-height="1004"
     id="namedview59"
     showgrid="false"
     inkscape:zoom="1.3037281"
     inkscape:cx="140.5953"
     inkscape:cy="246.81474"
     inkscape:window-x="0"
     inkscape:window-y="0"
     inkscape:window-maximized="0"
     inkscape:current-layer="Capa_1" /><path
     style="fill:#FFDA68;"
     d="M 244.11328 0 C 237.66181 -0.032747559 231.66745 4.0963125 229.61914 10.570312 C 227.09714 18.537312 231.51247 27.0415 239.48047 29.5625 C 248.75747 32.4985 259.4862 36.552906 271.4082 42.128906 C 266.3182 41.765906 261.181 41.570312 256 41.570312 C 164.78 41.570312 104.64281 62.853031 70.257812 80.707031 C 62.840812 84.557031 59.948781 93.692375 63.800781 101.10938 C 66.494781 106.29837 71.773188 109.27148 77.242188 109.27148 C 79.590187 109.27148 81.973172 108.72241 84.201172 107.56641 C 92.895172 103.05341 103.42811 98.299156 115.91211 93.785156 C 112.42611 96.799156 109.04672 99.932109 105.76172 103.16211 C 105.28372 103.53711 104.81795 103.934 104.37695 104.375 C 39.872953 168.88 12.398937 226.45263 0.7109375 263.39062 C -1.8110625 271.35762 2.6023125 279.85986 10.570312 282.38086 C 12.089313 282.86186 13.628625 283.08984 15.140625 283.08984 C 21.562625 283.08984 27.5225 278.96853 29.5625 272.51953 C 32.4985 263.24253 36.552906 252.5138 42.128906 240.5918 C 41.765906 245.6818 41.570312 250.81705 41.570312 255.99805 C 41.570312 347.21805 62.853031 407.35719 80.707031 441.74219 C 83.401031 446.93119 88.679438 449.9043 94.148438 449.9043 C 96.496437 449.9043 98.879422 449.35522 101.10742 448.19922 C 108.52442 444.34922 111.41645 435.21387 107.56445 427.79688 C 103.05145 419.10287 98.297203 408.56994 93.783203 396.08594 C 96.797203 399.57094 99.929203 402.95233 103.1582 406.23633 C 103.5332 406.71533 103.93205 407.18205 104.37305 407.62305 C 168.87705 472.12705 226.45067 499.60006 263.38867 511.28906 C 264.90767 511.77006 266.44503 511.99805 267.95703 511.99805 C 274.37903 511.99805 280.33891 507.87673 282.37891 501.42773 C 284.90091 493.46073 280.48558 484.95655 272.51758 482.43555 C 263.24058 479.49955 252.51184 475.44514 240.58984 469.86914 C 245.67984 470.23214 250.81705 470.42773 255.99805 470.42773 C 347.21805 470.42773 407.35523 449.14502 441.74023 431.29102 C 449.15723 427.44102 452.04927 418.30567 448.19727 410.88867 C 444.34627 403.47167 435.21092 400.58359 427.79492 404.43359 C 419.10092 408.94659 408.56798 413.70084 396.08398 418.21484 C 399.56998 415.20084 402.95038 412.06694 406.23438 408.83594 C 406.71738 408.46294 407.18205 408.066 407.62305 407.625 C 472.12705 343.121 499.60006 285.54737 511.28906 248.60938 C 513.81106 240.64237 509.39769 232.14014 501.42969 229.61914 C 493.45869 227.09514 484.9585 231.51347 482.4375 239.48047 C 479.5015 248.75747 475.44709 259.4862 469.87109 271.4082 C 470.23409 266.3182 470.42969 261.181 470.42969 256 C 470.42969 164.78 449.14697 104.64281 431.29297 70.257812 C 427.44197 62.840812 418.30863 59.949781 410.89062 63.800781 C 403.47363 67.650781 400.58355 76.786125 404.43555 84.203125 C 408.94855 92.897125 413.7028 103.43006 418.2168 115.91406 C 415.2028 112.42906 412.06884 109.04767 408.83984 105.76367 C 408.46484 105.28467 408.06795 104.81795 407.62695 104.37695 C 343.12095 39.871953 285.54737 12.399937 248.60938 0.7109375 C 247.11481 0.2376875 245.60208 0.0075571289 244.11328 0 z M 207.12305 92.166016 L 249.27734 92.166016 L 249.27734 164.62695 L 335.63867 164.62695 L 335.63867 197.21094 L 249.27734 197.21094 L 249.27734 335.75195 C 249.27734 356.56358 252.08832 369.93294 257.70898 375.85742 C 263.48155 381.7819 275.10265 384.74414 292.57227 384.74414 L 335.63867 384.74414 L 335.63867 419.83398 L 292.57227 419.83398 C 260.2155 419.83398 237.88477 413.83485 225.58008 401.83398 C 213.27539 389.68121 207.12305 367.65299 207.12305 335.75195 L 207.12305 197.21094 L 176.36133 197.21094 L 176.36133 164.62695 L 207.12305 164.62695 L 207.12305 92.166016 z "
     id="path2" /><path
     style="fill:#ffa426"
     d="M 255.99609 3.171875 L 255.99609 35.474609 C 260.87709 37.412609 266.0142 39.607859 271.4082 42.130859 C 266.3182 41.767859 261.181 41.572266 256 41.572266 L 255.99609 41.572266 L 255.99609 164.62695 L 335.63867 164.62695 L 335.63867 197.21094 L 255.99609 197.21094 L 255.99609 373.66602 C 256.53639 374.47707 257.10345 375.21916 257.70898 375.85742 C 263.48155 381.7819 275.10265 384.74414 292.57227 384.74414 L 335.63867 384.74414 L 335.63867 419.83398 L 292.57227 419.83398 C 278.47624 419.83398 266.28653 418.69361 255.99609 416.41602 L 255.99609 470.42969 L 256 470.42969 C 347.22 470.42969 407.35719 449.14697 441.74219 431.29297 C 449.15919 427.44297 452.05122 418.30762 448.19922 410.89062 C 444.34822 403.47363 435.21287 400.58555 427.79688 404.43555 C 419.10287 408.94855 408.56994 413.7028 396.08594 418.2168 C 399.57194 415.2028 402.95233 412.06984 406.23633 408.83984 C 406.71533 408.46484 407.18205 408.066 407.62305 407.625 C 472.12705 343.121 499.60006 285.54737 511.28906 248.60938 C 513.81206 240.64237 509.39669 232.14014 501.42969 229.61914 C 493.45869 227.09514 484.9585 231.51347 482.4375 239.48047 C 479.5015 248.75747 475.44709 259.4862 469.87109 271.4082 C 470.23409 266.3182 470.42969 261.181 470.42969 256 C 470.42969 164.78 449.14697 104.64281 431.29297 70.257812 C 427.44197 62.840812 418.30862 59.949781 410.89062 63.800781 C 403.47363 67.650781 400.58355 76.786125 404.43555 84.203125 C 408.94855 92.897125 413.7028 103.43006 418.2168 115.91406 C 415.2028 112.42906 412.06884 109.04767 408.83984 105.76367 C 408.46484 105.28467 408.06795 104.81795 407.62695 104.37695 C 347.27195 44.022953 292.98809 16.090875 255.99609 3.171875 z "
     id="path4" /><path
     style="fill:#ffa426"
     d="M 181.69922 124.91797 C 177.82659 124.91797 173.95595 126.39366 171.00195 129.34766 C 165.09295 135.25666 165.09295 144.83809 171.00195 150.74609 L 184.88086 164.62695 L 207.12305 164.62695 L 207.12305 144.07031 L 192.40039 129.34766 C 189.44589 126.39366 185.57184 124.91797 181.69922 124.91797 z "
     id="path6" /><path
     style="fill:#ffa426"
     d="M 179.55664 331.05469 C 175.68402 331.05469 171.81142 332.53233 168.85742 335.48633 C 162.94842 341.39533 162.94842 350.97677 168.85742 356.88477 L 194.62305 382.65039 C 197.57705 385.60539 201.44927 387.08398 205.32227 387.08398 C 208.50727 387.08398 211.6855 386.067 214.36133 384.06641 C 211.01645 375.58672 208.83482 365.24005 207.80859 353.03906 L 190.25586 335.48633 C 187.30136 332.53233 183.42927 331.05469 179.55664 331.05469 z "
     id="path8" /><path
     style="fill:#ffa426"
     d="M 249.27734 240.27148 L 249.27734 278.41992 L 262.61719 291.76172 C 265.57119 294.71772 269.44341 296.19531 273.31641 296.19531 C 277.18841 296.19531 281.06162 294.71672 284.01562 291.76172 C 289.92462 285.85272 289.92462 276.27228 284.01562 270.36328 L 258.25 244.5957 C 255.73586 242.08071 252.55596 240.64584 249.27734 240.27148 z "
     id="path10" /><path
     inkscape:connector-curvature="0"
     id="path12"
     d="m 131.99,280.536 c -3.873,0 -7.745,-1.478 -10.699,-4.433 -5.909,-5.908 -5.909,-15.49 0,-21.399 l 25.767,-25.767 c 5.908,-5.908 15.49,-5.908 21.399,0 5.909,5.908 5.909,15.49 0,21.399 l -25.767,25.767 c -2.955,2.955 -6.827,4.433 -10.7,4.433 z"
     style="fill:#ffa426" /><path
     inkscape:connector-curvature="0"
     id="path16"
     d="m 380.009,271.098 c -3.873,0 -7.745,-1.477 -10.699,-4.433 L 343.543,240.9 c -5.909,-5.908 -5.909,-15.489 0,-21.399 5.908,-5.908 15.49,-5.91 21.399,0 l 25.767,25.766 c 5.909,5.908 5.909,15.489 0,21.399 -2.955,2.954 -6.828,4.432 -10.7,4.432 z"
     style="fill:#fe6a16" /><path
     inkscape:connector-curvature="0"
     id="path18"
     d="m 312.795,379.09 c -3.873,0 -7.745,-1.478 -10.699,-4.433 -5.909,-5.908 -5.909,-15.49 0,-21.399 l 25.766,-25.766 c 5.908,-5.908 15.49,-5.908 21.399,0 5.909,5.908 5.909,15.49 0,21.399 l -25.766,25.766 c -2.956,2.955 -6.829,4.433 -10.7,4.433 z"
     style="fill:#fe6a16" /><path
     style="fill:#fe6a16"
     d="M 336.88477 131.70703 C 333.01214 131.70703 329.13955 133.18467 326.18555 136.13867 L 300.41992 161.9043 C 299.58108 162.74314 298.87412 163.66109 298.27344 164.62695 L 335.63867 164.62695 L 335.63867 169.48242 L 347.58398 157.53711 C 353.49298 151.62811 353.49298 142.04667 347.58398 136.13867 C 344.62948 133.18467 340.75739 131.70703 336.88477 131.70703 z "
     id="path20" /><path
     style="fill:#FFA426;"
     d="M267.959,512c6.422,0,12.382-4.122,14.422-10.571c2.522-7.967-1.893-16.47-9.861-18.991  c-5.081-1.608-10.613-3.567-16.524-5.912v32.302c2.546,0.89,5.015,1.711,7.393,2.463C264.909,511.771,266.447,512,267.959,512z"
     id="path24" /><path
     style="fill:#FE6A16;"
     d="M258.25,244.598c-0.702-0.703-1.46-1.315-2.254-1.851v42.396l6.621,6.621  c2.955,2.956,6.827,4.433,10.699,4.433s7.745-1.478,10.699-4.433c5.909-5.908,5.909-15.489,0-21.399L258.25,244.598z"
     id="path26" /><g
     id="g28" /><g
     id="g30" /><g
     id="g32" /><g
     id="g34" /><g
     id="g36" /><g
     id="g38" /><g
     id="g40" /><g
     id="g42" /><g
     id="g44" /><g
     id="g46" /><g
     id="g48" /><g
     id="g50" /><g
     id="g52" /><g
     id="g54" /><g
     id="g56" /></svg>